<svg xmlns="http://www.w3.org/2000/svg" xmlns:xlink="http://www.w3.org/1999/xlink" version="1.1" fill="#F5F5F7" x="0px" y="0px" style="enable-background:new 0 0 100 100;" xml:space="preserve" viewBox="10 23.67 80.02 52.68"><g><g><path d="M63.683,76.317c-0.787,0-1.575-0.3-2.176-0.901c-1.202-1.202-1.202-3.15,0-4.351L82.572,50L61.508,28.936    c-1.201-1.202-1.201-3.15,0-4.351c1.202-1.202,3.15-1.202,4.352,0l23.24,23.24c1.201,1.202,1.201,3.15,0,4.351l-23.24,23.24    C65.258,76.016,64.471,76.317,63.683,76.317z"/></g><g><path d="M86.923,53.077H13.077C11.378,53.077,10,51.699,10,50c0-1.699,1.378-3.077,3.077-3.077h73.846    C88.622,46.923,90,48.301,90,50C90,51.699,88.622,53.077,86.923,53.077z"/></g></g></svg>