<svg xmlns="http://www.w3.org/2000/svg" version="1.1" xmlns:xlink="http://www.w3.org/1999/xlink" xmlns:svgjs="http://svgjs.dev/svgjs" width="2000" height="2032" viewBox="0 0 2000 2032"><g transform="matrix(1,0,0,1,-1.5573770491803316,-3.2774193548387984)"><svg viewBox="0 0 244 248" data-background-color="#000000" preserveAspectRatio="xMidYMid meet" height="2032" width="2000" xmlns="http://www.w3.org/2000/svg" xmlns:xlink="http://www.w3.org/1999/xlink"><g id="tight-bounds" transform="matrix(1,0,0,1,0.18999999999999773,0.4000000000000057)"><svg viewBox="0 0 243.61964141689373 247.2" height="247.2" width="243.61964141689373"><g><svg></svg></g><g><svg viewBox="0 0 243.61964141689373 247.2" height="247.2" width="243.61964141689373"><g transform="matrix(1,0,0,1,0,47.215199999999996)"><svg viewBox="0 0 243.61964141689373 152.7696" height="152.7696" width="243.61964141689373"><g><svg viewBox="0 0 243.61964141689373 152.7696" height="152.7696" width="243.61964141689373"><g><svg viewBox="0 0 243.61964141689373 152.7696" height="152.7696" width="243.61964141689373"><g><svg viewBox="0 0 243.61964141689373 152.7696" height="152.7696" width="243.61964141689373"><g id="textblocktransform"><svg viewBox="0 0 243.61964141689373 152.7696" height="152.7696" width="243.61964141689373" id="textblock"><g><svg viewBox="0 0 243.61964141689373 152.7696" height="152.7696" width="243.61964141689373"><g transform="matrix(1,0,0,1,0,0)"><svg width="243.61964141689373" viewBox="0 -35.84 57.15 35.84" height="152.7696" data-palette-color="#f5f5f7"><path d="M32.3 0L27.05 0 23.1-10.62 9.11-10.62 5.2 0 0 0 13.62-35.84 18.75-35.84 32.3 0ZM10.64-14.97L21.7-14.97 17.94-25.49Q17.77-26.03 17.42-27.1 17.07-28.17 16.71-29.32 16.36-30.47 16.14-31.23L16.14-31.23Q15.89-30.22 15.58-29.11 15.26-28 14.95-27.04 14.65-26.07 14.45-25.49L14.45-25.49 10.64-14.97ZM42.11-15.01L42.11 0 37.13 0 37.13-35.69 57.15-35.69 57.15-31.4 42.11-31.4 42.11-19.29 56.22-19.29 56.22-15.01 42.11-15.01Z" opacity="1" transform="matrix(1,0,0,1,0,0)" fill="#F5F5F7" class="wordmark-text-0" data-fill-palette-color="primary" id="text-0"></path></svg></g></svg></g></svg></g></svg></g><g></g></svg></g></svg></g></svg></g><path d="M0 41.215L0 1 243.62 1 243.62 41.215 229.843 41.215 229.843 14.777 13.777 14.777 13.777 41.215 0 41.215M0 205.985L0 246.2 243.62 246.2 243.62 205.985 229.843 205.985 229.843 232.423 13.777 232.423 13.777 205.985 0 205.985" fill="#F5F5F7" stroke="transparent" data-fill-palette-color="tertiary"></path></svg></g><defs></defs></svg><rect width="243.61964141689373" height="247.2" fill="none" stroke="none" visibility="hidden"></rect></g></svg></g></svg>